<svg width="40.911" height="48.014" viewBox="0 0 40.911 48.014" xmlns="http://www.w3.org/2000/svg"><g id="svgGroup" stroke-linecap="round" fill-rule="evenodd" font-size="9pt" stroke="#710a0a" stroke-width="0" fill="#710a0a" style="stroke:#710a0a;stroke-width:0;fill:#710a0a"><path d="M 29.358 10.607 L 28.126 4.925 Q 27.274 4.736 26.422 4.641 Q 25.57 4.546 24.717 4.546 A 11.061 11.061 0 0 0 18.42 6.488 A 11.493 11.493 0 0 0 15.622 9.2 Q 14.561 10.624 13.732 12.501 A 19.075 19.075 0 0 0 12.534 16.325 Q 12.139 18.218 12.004 20.425 A 39.115 39.115 0 0 0 11.933 22.824 A 30.303 30.303 0 0 0 12.317 27.812 Q 12.765 30.495 13.738 32.634 A 13.86 13.86 0 0 0 15.863 35.987 Q 19.793 40.532 26.138 40.532 Q 29.926 40.532 32.956 38.828 Q 35.987 37.123 38.07 34.188 L 40.911 36.271 A 20.415 20.415 0 0 1 38.073 41.212 A 16.899 16.899 0 0 1 33.856 45.031 A 18.663 18.663 0 0 1 27.247 47.585 A 25.729 25.729 0 0 1 22.444 48.014 A 25.468 25.468 0 0 1 15.442 47.08 A 22.059 22.059 0 0 1 10.891 45.22 Q 5.777 42.426 2.889 37.076 A 23.216 23.216 0 0 1 0.573 30.455 Q 0.001 27.523 0.001 24.149 Q 0.001 16.479 3.268 11.081 A 21.936 21.936 0 0 1 11.933 2.842 Q 17.331 0.001 23.676 0.001 A 21.232 21.232 0 0 1 28.611 0.555 A 17.866 17.866 0 0 1 32.056 1.753 A 17.612 17.612 0 0 1 35.998 4.251 A 15.298 15.298 0 0 1 38.117 6.44 Q 40.437 9.376 40.911 13.069 A 6.8 6.8 0 0 1 40.04 15.06 Q 38.841 16.862 36.523 17.172 A 7.63 7.63 0 0 1 35.513 17.236 Q 30.21 17.236 29.358 10.607 Z" vector-effect="non-scaling-stroke"/></g></svg>